inDegrees=no
num_controls=7
num_derivatives=13
num_iterations=121
num_multipliers=7
num_parameters=0
num_slacks=7
num_states=26
objective=0.497144
objective_accelerations=0.042355
objective_balance=0.003514
objective_effort=0.039758
objective_height=0.405692
objective_ligament=0.005825
solver_duration=1334.571546
status=Solve_Succeeded
success=true
DataType=double
version=3
OpenSimVersion=4.5
endheader
time	/jointset/ground_pelvis/pelvis_tilt/value	/jointset/ground_pelvis/pelvis_tx/value	/jointset/ground_pelvis/pelvis_ty/value	/jointset/hip_r/hip_flexion_r/value	/jointset/hip_r/hip_adduction_r/value	/jointset/hip_r/hip_rotation_r/value	/jointset/back/lumbar_extension/value	/jointset/patellofemoral_r/patellar_flexion_r/value	/jointset/knee_r/knee_flexion_r/value	/jointset/knee_r/knee_adduction_r/value	/jointset/knee_r/knee_rotation_r/value	/jointset/ankle_r/ankle_angle_r/value	/jointset/subtalar_r/subtalar_angle_r/value	/jointset/ground_pelvis/pelvis_tilt/speed	/jointset/ground_pelvis/pelvis_tx/speed	/jointset/ground_pelvis/pelvis_ty/speed	/jointset/hip_r/hip_flexion_r/speed	/jointset/hip_r/hip_adduction_r/speed	/jointset/hip_r/hip_rotation_r/speed	/jointset/back/lumbar_extension/speed	/jointset/patellofemoral_r/patellar_flexion_r/speed	/jointset/knee_r/knee_flexion_r/speed	/jointset/knee_r/knee_adduction_r/speed	/jointset/knee_r/knee_rotation_r/speed	/jointset/ankle_r/ankle_angle_r/speed	/jointset/subtalar_r/subtalar_angle_r/speed	/forceset/tau_hip_flexion_r	/forceset/tau_hip_adduction_r	/forceset/tau_hip_rotation_r	/forceset/tau_knee_flexion_r	/forceset/tau_ankle_angle_r	/forceset/tau_subtalar_angle_r	/forceset/tau_lumbar_extension	lambda_cid13_p0	lambda_cid14_p0	lambda_cid14_p1	lambda_cid14_p2	lambda_cid14_p3	lambda_cid14_p4	lambda_cid14_p5	/jointset/ground_pelvis/pelvis_tilt/accel	/jointset/ground_pelvis/pelvis_tx/accel	/jointset/ground_pelvis/pelvis_ty/accel	/jointset/hip_r/hip_flexion_r/accel	/jointset/hip_r/hip_adduction_r/accel	/jointset/hip_r/hip_rotation_r/accel	/jointset/back/lumbar_extension/accel	/jointset/patellofemoral_r/patellar_flexion_r/accel	/jointset/knee_r/knee_flexion_r/accel	/jointset/knee_r/knee_adduction_r/accel	/jointset/knee_r/knee_rotation_r/accel	/jointset/ankle_r/ankle_angle_r/accel	/jointset/subtalar_r/subtalar_angle_r/accel	gamma_cid13_p0	gamma_cid14_p0	gamma_cid14_p1	gamma_cid14_p2	gamma_cid14_p3	gamma_cid14_p4	gamma_cid14_p5
1.5	-0.1506342879321197	0.04481450117877971	0.8505916182599677	0.780310882707974	-0.2398328564775516	-0.1118817601226038	-0.2851849546043237	0.7242287340269966	0.7242287340270466	0.06354335393483714	0.1745032270344583	0.2628493202292193	0.0430255915351196	0.341616357644743	0.1553792932311345	0.4127084590868307	-1.768797906141536	0.03755345503634669	-0.4004354708468651	0.7028443008909422	-1.9638588401967	-1.963858840196908	0.1879572808389346	-2.12313459232074e-05	-0.6252661084754202	-0.1157322699059641	-0.09184774722954268	-0.01780490939165886	0.01136906515802923	-0.3320270571138988	0.0621437358073678	-0.01185179660710015	0.1392235329893854	-29.94321478707213	-21.29861155348815	-4.971410378018929	-3.207967858972297	2.576244694863328	-654.0821089164184	56.86785473161635	0.1757036128978695	0.3465040166885563	-0.559389206694454	-0.8199564112768644	0.09569506535837247	-0.3337623956228579	1.303995064558973	-1.104030202289085	-1.104030202289068	0.5341401478860087	-0.024378903902806	-0.5555539072375938	0.03947477648104757	1.475443602581887e-07	1.021546509674639e-07	-1.439084192009462e-06	8.133490773829414e-07	8.972102393400332e-08	2.162376350390863e-07	-1.065200502623374e-06
1.51	-0.1472095986643124	0.04638536852480451	0.8546898558328541	0.7625839563690556	-0.2394533021024264	-0.1159031376587634	-0.2780927888308579	0.7045376501627013	0.7045376501627302	0.06545073543908021	0.1745031726987484	0.2565695075894433	0.04186936770336609	0.3432731593354838	0.1587650828517153	0.4068490416139792	-1.776326250902563	0.03835236220893889	-0.4038123151682965	0.7154606654246943	-1.974055226790258	-1.974055226790313	0.1935137739429195	8.374977235413479e-06	-0.630599576574074	-0.1154955536381253	-0.08536289223704178	-0.02001261273109071	0.0108155957799232	-0.3285450946826875	0.06580226099386111	-0.01271648850741698	0.1332860285929107	-31.08340609133413	-19.95232414817872	-4.985537761917677	-3.349275716040591	2.15041076244056	-650.0712889332958	57.0189682159183	0.1534265374437731	0.3302722451883309	-0.6126713567957262	-0.6800949967833094	0.07122439375035965	-0.3352651444121911	1.221228891064812	-0.9320693390775596	-0.9320693390545656	0.565424661941993	0.01647556025948154	-0.5076810692334405	0.01816218656526969	1.56860632210247e-07	1.069070364965173e-07	-1.543925205126971e-06	8.491301893544621e-07	9.577453815867853e-08	2.343702078440578e-07	-1.134816377446412e-06
1.52	-0.1437697897615433	0.04798922492912406	0.8587268085631689	0.7447895822848719	-0.2390659114854662	-0.1199574075769397	-0.2708783050633986	0.6847536771422318	0.6847536771422434	0.06741348602842032	0.1745033834582372	0.2502392727070697	0.04071598946121698	0.3446402846374958	0.1619771048900851	0.4004514905725127	-1.782287455194298	0.03912070340315923	-0.4070139472500842	0.727307899689712	-1.98243667143135	-1.982436671431251	0.1990310978583948	3.17876937655877e-05	-0.635350556994894	-0.1151631519850879	-0.07887803724454261	-0.02222031607052323	0.01026212640182212	-0.3250631322514768	0.06946078618035448	-0.01358118040773479	0.1273485241964348	-32.2065457589533	-18.60941424480272	-4.997694759396152	-3.493824303924307	1.714482200187118	-646.1207548325581	57.22746618054957	0.1177683351520356	0.3117505002464082	-0.667015920417469	-0.506528317418552	0.08958186968399479	-0.2987199476941087	1.150169010812002	-0.741041811795681	-0.7410418117956888	0.5263063101841098	-0.02561762522848881	-0.4390563716707834	0.05861185352074248	1.647608766279094e-07	1.047009454010045e-07	-1.642603679933415e-06	8.601732733773229e-07	1.079541866949174e-07	2.325990687966474e-07	-1.190627674072579e-06
1.53	-0.140317918557895	0.04962430219513544	0.862697152433445	0.7269436299283142	-0.2386710166702506	-0.1240430028241845	-0.2635490667783322	0.6648950790609062	0.6648950790609435	0.06943113570211969	0.1745039618832231	0.243864500024613	0.03956640573447404	0.3456836788069338	0.1650060082866743	0.3935366899857116	-1.786641497743507	0.03985237365582125	-0.4100743530944964	0.7384061158711007	-1.988978857184023	-1.988978857184085	0.2044928100668853	8.027073927076482e-05	-0.6395040164789467	-0.1147376303730062	-0.07238543446155382	-0.02456445466265048	0.009678216284772031	-0.321785291804829	0.07326461631895032	-0.01453745100104365	0.1214387268088289	-33.2994730456404	-17.24457841121032	-5.050469482728553	-3.626546417599487	1.285096285899986	-642.4971542604152	57.41531989788425	0.09009180860188974	0.2936365852836791	-0.7157616702418652	-0.3606040315275824	0.06404405289991028	-0.3048596192646239	1.06960170384124	-0.5652287256765781	-0.5652287257007393	0.5549806568955291	0.01967743946798	-0.3884585484610232	0.0367349199084384	1.711565917902761e-07	9.510147289189041e-08	-1.734734457784354e-06	8.449322027047326e-07	1.266428529371927e-07	2.096802359060815e-07	-1.231771606364571e-06
1.54	-0.1368571200424021	0.05128870376029625	0.866595938389367	0.7090619847846917	-0.2382689882625389	-0.1281582338731639	-0.2561128555750447	0.6449801747683185	0.6449801747683821	0.07150317789404627	0.1745049443726698	0.237451199184978	0.03842151974482325	0.3464257470068683	0.1678419647199715	0.3861399077016858	-1.789426012606936	0.04054742190218724	-0.4129411075969023	0.7487024833340534	-1.993697913683634	-1.993697913683857	0.2099096015039363	0.0001126005858944092	-0.6430561884305387	-0.1142236045666623	-0.06589283167856637	-0.02690859325477871	0.009094306167726444	-0.3185074513581818	0.07706844645754607	-0.01549372159435391	0.1155289294212223	-34.35585608694706	-15.88748255921251	-5.101833315260062	-3.762653470905257	0.8562323572119526	-639.0011177205757	57.66779158082057	0.05750314125126979	0.2731611075880582	-0.7634122598624019	-0.1926227802624394	0.08225746842478454	-0.2599896792928521	0.9897992671247217	-0.3764159611831808	-0.3764159611831763	0.5173221558962431	-0.02884826500478964	-0.3187988651785407	0.07631269237318919	1.782111437285938e-07	8.814245130315034e-08	-1.829280552704559e-06	8.379013184825882e-07	1.42440751660545e-07	1.944188049465831e-07	-1.275755116503163e-06
1.55	-0.1333905022879261	0.05298049544231194	0.8704184401644406	0.6911603699129018	-0.2378602139612477	-0.1323013542938577	-0.2485775799291685	0.6250271912125834	0.6250271912126448	0.07362910487717624	0.1745063229959782	0.2310054246339072	0.03728221201911266	0.346842790219047	0.1704834437505785	0.3782904090487773	-1.790636992056932	0.04120220113811639	-0.4156511044820904	0.7582237932219162	-1.996597553036215	-1.996597553036273	0.2152648913241509	0.0001575551640197115	-0.6459944251966321	-0.1136205471501193	-0.05941029842773866	-0.02938480593166172	0.008470727079932964	-0.3154747147150757	0.08114045009816935	-0.01657332940316971	0.109686650606072	-35.36991533130273	-14.471021648239	-5.202263413726486	-3.884203709144842	0.3812952769529436	-635.8677884435934	57.88598089557687	0.02556090132235392	0.2547344779291614	-0.8061875270488993	-0.04633061433282887	0.05624539635910803	-0.2714836115924812	0.9139689566325822	-0.2015893313841322	-0.2015893313593618	0.5427506598285491	0.02047648122929	-0.2656509570787838	0.05469926549310543	1.860247902131159e-07	8.422568838353674e-08	-1.926609512943704e-06	8.403299969098701e-07	1.549079834599212e-07	1.879800327337487e-07	-1.323010314160663e-06
1.56	-0.1299213629033064	0.05469772055005995	0.8741603531811764	0.6732544462292172	-0.23744506041856	-0.1364705704670958	-0.2409509567630111	0.6050542409815038	0.6050542409815672	0.07580820841145579	0.1745080129974703	0.2245334047402245	0.03614941426740716	0.3469300730360823	0.1729286498664377	0.3700221560341077	-1.790287774985518	0.04182327018133059	-0.4181602581057067	0.7669719873904077	-1.997691248752339	-1.997691248752232	0.2205449117341451	0.0001748762224690231	-0.6483052569528868	-0.1129216097656466	-0.05292776517691231	-0.03186101860854589	0.007847147992148445	-0.3124419780719706	0.08521245373879241	-0.01765293721198723	0.1038443717909209	-36.33586444286844	-13.06373856901948	-5.30128183105202	-4.009427496553023	-0.09053824922497825	-632.8858764166974	58.17280469620859	-0.008448937777494859	0.2339065246385974	-0.8471631322146033	0.1194165240193735	0.07551542988178661	-0.2198210269785081	0.8351761232504095	-0.01522723389187762	-0.01522723389187784	0.5022682738521911	-0.03437496893998351	-0.1933178632107321	0.09548868595912235	1.931812205858584e-07	7.952153546694709e-08	-2.016716740396823e-06	8.381026402982671e-07	1.669852919443011e-07	1.796690713898692e-07	-1.363333763647315e-06
